<svg width="97" height="97" viewBox="0 0 97 97" fill="none" xmlns="http://www.w3.org/2000/svg">
<g clip-path="url(#clip0_25_39)">
<path d="M96.9927 48.0038C96.7604 42.1513 95.7778 36.4609 93.6723 30.9424C92.0774 26.7575 89.8678 22.9599 87.2564 19.3898C85.2429 16.6354 82.8566 14.1957 80.2767 11.935C75.6252 7.85662 70.3686 4.84564 64.5699 2.75684C63.1516 2.24613 61.6052 2.05492 60.2305 1.4595C58.6816 0.789052 57.0553 0.854403 55.4701 0.59542C53.8195 0.326755 52.1254 0.302551 50.4482 0.188792C49.2962 0.108919 48.1321 -0.0556681 46.985 0.0193643C43.2216 0.271086 39.4849 0.692236 35.8111 1.66524C31.9316 2.69391 28.2747 4.24054 24.8236 6.19865C22.2146 7.67751 19.78 9.49039 17.3937 11.3226C13.5287 14.2852 10.4551 18.0029 7.79049 22.0571C6.21739 24.4509 4.81612 26.9439 3.78029 29.6306C3.17767 31.1917 2.35966 32.6778 1.87804 34.2705C1.36013 35.9865 1.09391 37.78 0.767191 39.5494C0.476772 41.1371 0.254117 42.7346 0 44.3296V52.4767C0.130689 53.2512 0.3001 54.0209 0.387226 54.8003C0.788972 58.3752 1.60699 61.8485 2.85337 65.2225C4.23528 68.9572 6.10364 72.4402 8.33261 75.7319C10.3147 78.6606 12.5509 81.3908 15.1429 83.7919C20.0728 88.3592 25.6779 91.8397 32.0018 94.1972C34.2307 95.0274 36.4912 95.6978 38.7952 96.1867C40.5159 96.5522 42.2996 96.6103 44.0518 96.816C44.2163 96.8354 44.3688 96.9371 44.5261 97H52.106C52.7861 96.8741 53.4613 96.6781 54.1487 96.6321C56.7407 96.4627 59.2237 95.86 61.7262 95.1605C67.5757 93.5243 72.8686 90.7965 77.6799 87.1804C80.0686 85.3821 82.3121 83.3223 84.328 81.1149C88.3552 76.7025 91.5087 71.7141 93.6384 66.0794C94.9017 62.7392 95.8238 59.3289 96.4216 55.829C96.6781 54.3332 96.7072 52.7986 96.8185 51.281C96.8984 50.1894 97.0363 49.093 96.9927 48.0038ZM74.0399 56.4873C73.9843 61.7251 71.1188 65.3992 66.0123 66.6312C65.2911 66.8055 64.5045 66.728 63.7494 66.728C58.8559 66.7353 53.9647 66.7329 49.0712 66.7329C43.6718 66.7329 38.2724 66.6796 32.8755 66.7522C29.9882 66.791 27.5729 65.8204 25.6271 63.7655C23.9426 61.9913 22.9722 59.8638 22.9697 57.3538C22.9649 51.3875 22.8439 45.4212 22.9673 39.4574C23.0351 36.185 24.6154 33.5782 27.4132 31.7581C29.1678 30.6181 31.116 30.272 33.1417 30.2695C43.4031 30.255 53.6622 30.2284 63.9213 30.2792C68.0186 30.2986 71.1793 32.0606 73.0646 35.8123C73.8923 37.4605 74.0085 39.271 74.0303 41.0524C74.0908 46.1958 74.0932 51.344 74.0399 56.4873Z" fill="#FF0000"/>
<path d="M74.0304 41.0525C74.0086 39.271 73.8924 37.4606 73.0647 35.8123C71.1794 32.0607 68.0187 30.2986 63.9214 30.2792C53.6623 30.2284 43.4032 30.255 33.1418 30.2696C31.1161 30.272 29.1679 30.6181 27.4132 31.7581C24.6155 33.5783 23.0352 36.185 22.9674 39.4574C22.844 45.4213 22.965 51.3876 22.9698 57.3539C22.9723 59.8638 23.9427 61.9913 25.6272 63.7655C27.573 65.8204 29.9883 66.791 32.8755 66.7523C38.2725 66.6797 43.6719 66.7329 49.0713 66.7329C53.9648 66.7329 58.856 66.7353 63.7495 66.7281C64.5046 66.7281 65.2912 66.8055 66.0124 66.6313C71.1189 65.3993 73.9844 61.7251 74.04 56.4874C74.0933 51.344 74.0909 46.1958 74.0304 41.0525ZM53.9842 49.1729C49.9643 51.5086 45.9444 53.8491 41.8156 56.2502V40.8201C43.5025 41.8827 45.0562 42.9186 46.6656 43.8553C47.9023 44.5741 49.2286 45.1333 50.4822 45.8231C51.6923 46.4863 52.8733 47.2075 54.0471 47.9385C54.8046 48.4105 54.7683 48.7179 53.9842 49.1729Z" fill="white"/>
<path d="M41.8154 56.2501V40.8201C43.5023 41.8826 45.0536 42.9186 46.6654 43.8553C47.9021 44.5741 49.226 45.1356 50.482 45.823C51.6921 46.4887 52.8756 47.2075 54.0469 47.9385C54.8068 48.4129 54.7681 48.7203 53.9864 49.1729C49.9641 51.5086 45.9466 53.8491 41.8178 56.2501H41.8154Z" fill="#FF0000"/>
</g>
<defs>
<clipPath id="clip0_25_39">
<rect width="97" height="97" fill="white"/>
</clipPath>
</defs>
</svg>
