<?xml version="1.0" encoding="UTF-8"?>
<svg id="Layer_1" data-name="Layer 1" xmlns="http://www.w3.org/2000/svg" viewBox="0 0 1080 1080">
  <defs>
    <style>
      .cls-1 {
        fill: #2d9e98;
      }
    </style>
  </defs>
  <path class="cls-1" d="m298.16,315.93c7.92,0,11.89-3.69,11.89-11.07,0-3.28-.92-6.05-2.77-8.3-1.84-2.25-4.27-3.38-7.28-3.38h-20.7c-10.38,0-18.93-1.67-25.62-5.02-6.7-3.35-11.99-7.55-15.88-12.6-3.89-5.05-6.63-10.59-8.2-16.6-1.57-6.01-2.36-11.54-2.36-16.6,0-6.15,1.06-12.23,3.18-18.24,2.12-6.01,5.43-11.41,9.94-16.19,4.51-4.78,10.04-8.64,16.6-11.58,6.56-2.94,14.28-4.41,23.16-4.41h60.87v39.55h-62.51c-7.79,0-11.68,3.48-11.68,10.45,0,7.79,3.89,11.68,11.68,11.68h18.85c8.2,0,15.51,1.4,21.93,4.2,6.42,2.8,11.78,6.53,16.09,11.17,4.3,4.65,7.65,10.11,10.04,16.4,2.39,6.29,3.59,12.91,3.59,19.88,0,6.42-1.13,12.57-3.38,18.44-2.25,5.88-5.47,11.14-9.63,15.78-4.17,4.65-9.19,8.37-15.06,11.17-5.88,2.8-12.43,4.2-19.67,4.2h-64.35c-12.84,0-25.28-2.66-37.3-7.99-12.02-5.33-22.65-12.67-31.87-22.03-9.22-9.36-16.57-20.46-22.03-33.3-5.47-12.84-8.2-26.98-8.2-42.42v-15.99h38.94c-.28,2.19-.41,4.34-.41,6.46v6.66c0,9.7,1.64,18.82,4.92,27.36,3.28,8.54,7.69,15.95,13.22,22.24,5.53,6.29,12.23,11.21,20.08,14.76,7.86,3.55,16.43,5.33,25.72,5.33h58.2Z"/>
  <path class="cls-1" d="m406.79,342.78c4.51-7.38,7.51-13.94,9.02-19.67,1.5-5.74,2.25-11.68,2.25-17.83,0-23.5-10.66-41.81-31.97-54.93l19.88-34.84c16.26,10.66,28.86,23.47,37.81,38.43,8.95,14.96,13.42,30.84,13.42,47.65v7.28c0,2.39-.28,4.75-.82,7.07h20.9v38.94h-33.61c-.55,1.36-1.23,2.83-2.05,4.41-.82,1.57-1.64,3.04-2.46,4.41l-41.19,69.68-33.61-19.26,42.42-71.32Z"/>
  <path class="cls-1" d="m485.89,374.14c6.97,0,12.57,2.32,16.81,6.97,4.23,4.64,6.35,10.04,6.35,16.19,0,7.24-2.46,13.05-7.38,17.42-4.92,4.37-10.18,6.56-15.78,6.56-6.42,0-11.95-2.39-16.6-7.17-4.64-4.78-6.97-10.39-6.97-16.81,0-5.6,2.12-10.86,6.35-15.78,4.24-4.92,9.97-7.38,17.22-7.38Zm-8.4-19.26c-4.78,0-8.44-2.01-10.96-6.05-2.53-4.03-3.79-8.43-3.79-13.22s1.27-9.12,3.79-13.01c2.53-3.89,6.18-6.11,10.96-6.66,6.97-.95,13.25-4.13,18.85-9.53,5.6-5.4,8.4-12.19,8.4-20.39v-70.5h39.35v70.5c0,10.93-2.19,20.9-6.56,29.92h41.81v38.94h-55.34v-20.49c-6.7,6.97-14.11,12.13-22.24,15.47-8.13,3.35-16.23,5.02-24.29,5.02Zm32.38-221.55l11.89,37.71,11.89-37.71h23.57l-17.01,52.47c-1.37,3.83-3.66,6.73-6.87,8.71-3.21,1.98-7.07,2.97-11.58,2.97-4.24,0-8.03-.92-11.37-2.77-3.35-1.84-5.71-4.82-7.07-8.92l-17.01-52.47h23.57Zm26.85,240.81c6.42,0,11.85,2.39,16.29,7.17,4.44,4.78,6.66,10.11,6.66,15.99,0,6.69-2.49,12.36-7.48,17.01-4.99,4.64-10.14,6.97-15.47,6.97-6.7,0-12.37-2.32-17.01-6.97-4.65-4.65-6.97-10.32-6.97-17.01,0-5.88,2.08-11.21,6.25-15.99,4.17-4.78,10.07-7.17,17.73-7.17Z"/>
  <path class="cls-1" d="m579.35,354.87c-5.05,0-8.78-2.01-11.17-6.05-2.39-4.03-3.59-8.43-3.59-13.22s1.2-9.25,3.59-13.42c2.39-4.17,6.12-6.25,11.17-6.25h30.95c-2.19-5.33-3.86-10.66-5.02-15.99-1.16-5.33-1.74-10.38-1.74-15.17,0-10.38,2.05-19.78,6.15-28.18,4.1-8.4,9.36-15.4,15.78-21.01,6.42-5.6,13.63-9.94,21.62-13.01s15.88-4.61,23.67-4.61c10.11,0,19.37,1.84,27.77,5.53s15.61,8.68,21.62,14.96c6.01,6.29,10.69,13.56,14.04,21.83,3.35,8.27,5.02,16.98,5.02,26.13,0,7.52-1.26,15.27-3.79,23.26-2.53,7.99-6.94,15.37-13.22,22.13-6.29,6.76-14.76,12.3-25.41,16.6-10.66,4.3-24.05,6.46-40.17,6.46h-77.26Zm62.1-68.04c0,8.2,2.66,15.17,7.99,20.9,5.33,5.74,12.43,8.61,21.31,8.61,8.2,0,15.23-2.87,21.11-8.61,5.87-5.74,8.81-12.71,8.81-20.9s-2.94-15.03-8.81-20.9c-5.88-5.87-12.91-8.81-21.11-8.81s-14.96,2.94-20.7,8.81c-5.74,5.88-8.61,12.84-8.61,20.9Z"/>
  <path class="cls-1" d="m774.25,150.54c6.97,0,12.53,2.29,16.7,6.87,4.17,4.58,6.25,9.94,6.25,16.09,0,7.38-2.43,13.22-7.28,17.52-4.85,4.3-10.08,6.46-15.68,6.46-6.42,0-11.96-2.39-16.6-7.17-4.65-4.78-6.97-10.38-6.97-16.81,0-5.6,2.08-10.83,6.25-15.68,4.17-4.85,9.94-7.28,17.32-7.28Zm27.26,192.24c4.51-7.38,7.51-13.94,9.02-19.67,1.5-5.74,2.25-11.68,2.25-17.83,0-23.5-10.59-41.81-31.77-54.93l19.67-34.84c16.26,10.66,28.86,23.47,37.81,38.43,8.95,14.96,13.42,30.84,13.42,47.65v7.28c0,2.39-.28,4.75-.82,7.07h20.91v38.94h-33.61c-.55,1.36-1.23,2.83-2.05,4.41-.82,1.57-1.64,3.04-2.46,4.41l-41.19,69.68-33.61-19.26,42.42-71.32Zm-1.64-235.89c6.42,0,11.85,2.36,16.29,7.07,4.44,4.71,6.66,10.01,6.66,15.88,0,6.7-2.49,12.37-7.48,17.01-4.99,4.65-10.14,6.97-15.47,6.97-6.83,0-12.54-2.32-17.11-6.97-4.58-4.64-6.87-10.31-6.87-17.01,0-5.87,2.08-11.17,6.25-15.88,4.17-4.71,10.07-7.07,17.73-7.07Zm25,43.65c6.56,0,12.06,2.36,16.5,7.07,4.44,4.71,6.66,10.01,6.66,15.88,0,6.7-2.53,12.37-7.58,17.01-5.06,4.65-10.25,6.97-15.58,6.97-6.7,0-12.33-2.32-16.91-6.97-4.58-4.64-6.87-10.31-6.87-17.01,0-5.87,2.08-11.17,6.25-15.88,4.17-4.71,10.01-7.07,17.52-7.07Z"/>
  <path class="cls-1" d="m872.22,315.93c6.97-.95,13.25-4.13,18.85-9.53,5.6-5.4,8.4-12.19,8.4-20.39v-70.5h38.94v70.5c0,10.39-1.95,19.78-5.84,28.18-3.89,8.4-8.99,15.61-15.27,21.62-6.29,6.01-13.42,10.69-21.42,14.04-7.99,3.35-15.88,5.02-23.67,5.02-4.78,0-8.43-2.01-10.96-6.05-2.53-4.03-3.79-8.43-3.79-13.22s1.26-9.12,3.79-13.01c2.53-3.89,6.18-6.11,10.96-6.66Zm38.32,104.93c-6.15,0-11.61-2.19-16.4-6.56-4.78-4.37-7.17-10.04-7.17-17.01s2.32-12.3,6.97-16.81c4.64-4.51,10.18-6.76,16.6-6.76s11.95,2.32,16.6,6.97c4.64,4.64,6.97,10.18,6.97,16.6s-2.33,12.3-6.97,16.81c-4.65,4.51-10.18,6.76-16.6,6.76Z"/>
  <path class="cls-1" d="m220.28,720v99.6h20.08v38.94h-27.26c-3.28,9.29-7.79,17.9-13.53,25.82-5.74,7.92-12.67,14.82-20.8,20.7-8.13,5.87-17.46,10.48-27.98,13.83-10.52,3.35-22.2,5.02-35.05,5.02-10.38,0-21.38-1.95-33-5.84-11.61-3.89-22.24-9.91-31.87-18.04-9.63-8.13-17.59-18.48-23.88-31.05-6.29-12.57-9.43-27.53-9.43-44.88,0-13.39,2.25-26.1,6.76-38.12,4.51-12.02,11.1-22.68,19.78-31.97,8.68-9.29,19.23-16.81,31.66-22.54,12.43-5.74,26.44-9.02,42.01-9.84v39.14c-8.34.55-16.23,2.43-23.67,5.64-7.45,3.21-13.87,7.55-19.26,13.01-5.4,5.47-9.63,12.06-12.71,19.78-3.07,7.72-4.61,16.29-4.61,25.72s1.6,18.52,4.82,26.03c3.21,7.52,7.69,13.8,13.42,18.86,5.74,5.05,12.3,8.92,19.67,11.58,7.38,2.66,15.3,4,23.77,4s15.81-1.54,23.26-4.61c7.45-3.07,14.04-7.62,19.78-13.63,5.74-6.01,10.28-13.29,13.63-21.83,3.35-8.54,5.02-18.27,5.02-29.21v-96.12h39.35Zm-101.86,126.86c-6.83,0-12.4-2.32-16.7-6.97-4.3-4.64-6.46-10.18-6.46-16.6s2.15-11.95,6.46-16.6c4.3-4.64,9.87-6.97,16.7-6.97s12.6,2.33,16.91,6.97c4.3,4.65,6.46,10.18,6.46,16.6s-2.29,11.96-6.87,16.6c-4.58,4.65-10.08,6.97-16.5,6.97Z"/>
  <path class="cls-1" d="m249.18,877.81c6.97,0,12.57,2.32,16.81,6.97,4.23,4.64,6.35,10.04,6.35,16.19,0,7.24-2.46,13.05-7.38,17.42-4.92,4.37-10.18,6.56-15.78,6.56-6.42,0-11.95-2.39-16.6-7.17-4.64-4.78-6.97-10.38-6.97-16.81,0-5.6,2.12-10.86,6.35-15.78,4.24-4.92,9.97-7.38,17.22-7.38Zm-8.4-19.26c-4.78,0-8.44-2.01-10.96-6.05-2.53-4.03-3.79-8.43-3.79-13.22s1.27-9.12,3.79-13.01c2.53-3.89,6.18-6.11,10.96-6.66,6.97-.95,13.25-4.13,18.85-9.53,5.6-5.4,8.4-12.19,8.4-20.39v-70.5h39.35v70.5c0,10.93-2.19,20.9-6.56,29.92h41.81v38.94h-55.34v-20.49c-6.7,6.97-14.11,12.13-22.24,15.47-8.13,3.35-16.23,5.02-24.29,5.02Zm59.23,19.26c6.42,0,11.85,2.39,16.29,7.17,4.44,4.78,6.66,10.11,6.66,15.99,0,6.69-2.49,12.36-7.48,17.01-4.99,4.64-10.15,6.97-15.47,6.97-6.7,0-12.37-2.33-17.01-6.97-4.65-4.65-6.97-10.32-6.97-17.01,0-5.88,2.08-11.21,6.25-15.99,4.17-4.78,10.07-7.17,17.73-7.17Z"/>
  <path class="cls-1" d="m342.64,858.55c-5.05,0-8.78-2.01-11.17-6.05-2.39-4.03-3.59-8.43-3.59-13.22s1.2-9.25,3.59-13.42c2.39-4.17,6.12-6.25,11.17-6.25,4.1,0,7.99-.85,11.68-2.56,3.69-1.71,6.87-3.96,9.53-6.76,2.66-2.8,4.75-6.01,6.25-9.63,1.5-3.62,2.25-7.28,2.25-10.96v-70.5h39.55v70.5c0,5.33-.51,10.45-1.54,15.37-1.02,4.92-2.77,9.77-5.23,14.55h13.73c3.69,0,7.34-.79,10.96-2.36,3.62-1.57,6.83-3.76,9.63-6.56,2.8-2.8,5.05-6.01,6.76-9.63,1.71-3.62,2.56-7.41,2.56-11.37v-70.5h38.94v70.5c0,5.33-.41,10.45-1.23,15.37-.82,4.92-2.6,9.77-5.33,14.55h13.73c7.79,0,14.62-2.94,20.49-8.81s8.81-12.91,8.81-21.11v-70.5h39.55v70.5c0,10.11-2.25,20.08-6.76,29.92h26.03v38.94h-38.94v-20.08c-6.15,6.15-13.36,11.04-21.62,14.65-8.27,3.62-17.32,5.43-27.16,5.43h-27.67v-20.49c-13.39,13.66-29.65,20.49-48.78,20.49h-27.26v-20.08c-13.94,13.39-30.26,20.08-48.98,20.08Zm97.35-206.58c6.97,0,12.53,2.32,16.7,6.97,4.17,4.65,6.25,10.04,6.25,16.19,0,7.24-2.43,13.05-7.28,17.42-4.85,4.37-10.08,6.56-15.68,6.56-6.42,0-11.96-2.39-16.6-7.17-4.65-4.78-6.97-10.38-6.97-16.81,0-5.6,2.12-10.86,6.35-15.78,4.23-4.92,9.97-7.38,17.22-7.38Zm25.62-43.65c6.42,0,11.85,2.39,16.29,7.17,4.44,4.78,6.66,10.11,6.66,15.99,0,6.7-2.49,12.37-7.48,17.01-4.99,4.65-10.14,6.97-15.47,6.97-6.7,0-12.37-2.32-17.01-6.97-4.65-4.64-6.97-10.31-6.97-17.01,0-5.87,2.08-11.2,6.25-15.99,4.17-4.78,10.07-7.17,17.73-7.17Zm25.21,43.65c6.42,0,11.85,2.39,16.29,7.17,4.44,4.78,6.66,10.11,6.66,15.99,0,6.7-2.49,12.37-7.48,17.01-4.99,4.65-10.15,6.97-15.47,6.97-6.83,0-12.54-2.32-17.11-6.97-4.58-4.64-6.87-10.31-6.87-17.01,0-5.87,2.08-11.2,6.25-15.99,4.17-4.78,10.07-7.17,17.73-7.17Z"/>
  <path class="cls-1" d="m711.33,819.61l-11.27-23.16c-5.33-10.66-11.75-19.19-19.26-25.62-7.52-6.42-15.78-9.63-24.8-9.63-5.88,0-10.9,1.27-15.06,3.79-4.17,2.53-8.23,7.14-12.19,13.83l-34.43-19.67c8.61-13.53,17.96-23.29,28.08-29.31,10.11-6.01,22.41-9.02,36.89-9.02,11.2,0,20.87,1.84,29,5.53,8.13,3.69,15.4,8.88,21.83,15.58,6.42,6.7,12.36,14.86,17.83,24.49,5.46,9.63,11,20.33,16.6,32.07,3.96,8.2,7.82,13.77,11.58,16.7,3.76,2.94,9.12,4.41,16.09,4.41v38.94h-189.17c-4.78,0-8.43-2.01-10.96-6.05-2.53-4.03-3.79-8.43-3.79-13.22s1.26-9.25,3.79-13.42c2.53-4.17,6.18-6.25,10.96-6.25h128.3Zm-53.7-164.98c6.42,0,11.89,2.36,16.4,7.07s6.76,10.01,6.76,15.88c0,6.7-2.53,12.37-7.58,17.01-5.06,4.65-10.25,6.97-15.58,6.97-6.7,0-12.37-2.32-17.01-6.97-4.65-4.64-6.97-10.32-6.97-17.01,0-5.87,2.12-11.17,6.35-15.88,4.23-4.71,10.11-7.07,17.62-7.07Z"/>
  <path class="cls-1" d="m932.27,760.79h-51.65c-5.33,0-9.87.89-13.63,2.66-3.76,1.78-6.9,4.13-9.43,7.07-2.53,2.94-4.37,6.18-5.53,9.74-1.16,3.55-1.74,6.97-1.74,10.25,0,9.02,2.87,16.12,8.61,21.31,5.74,5.19,12.98,7.79,21.72,7.79h31.56v38.94h-32.79c-9.29,0-18-1.67-26.13-5.02-8.13-3.35-15.34-8.02-21.62-14.04-6.29-6.01-11.24-13.15-14.86-21.42-3.62-8.27-5.43-17.45-5.43-27.57,0-9.43,1.67-18.34,5.02-26.75,3.35-8.4,8.03-15.75,14.04-22.03,6.01-6.28,13.22-11.27,21.62-14.96,8.4-3.69,17.66-5.53,27.77-5.53h91.41v98.37h26.44v38.94h-65.38v-97.76Z"/>
  <path class="cls-1" d="m997.85,819.61c6.97-.95,13.25-4.13,18.85-9.53,5.6-5.4,8.4-12.19,8.4-20.39v-70.5h38.94v70.5c0,10.38-1.95,19.78-5.84,28.18-3.89,8.4-8.99,15.61-15.27,21.62-6.29,6.01-13.42,10.69-21.42,14.04-7.99,3.35-15.88,5.02-23.67,5.02-4.78,0-8.43-2.01-10.96-6.05-2.53-4.03-3.79-8.43-3.79-13.22s1.26-9.12,3.79-13.01c2.53-3.89,6.18-6.11,10.96-6.66Zm38.32,104.93c-6.15,0-11.61-2.19-16.4-6.56-4.78-4.38-7.17-10.04-7.17-17.01s2.32-12.3,6.97-16.81c4.64-4.51,10.18-6.76,16.6-6.76s11.95,2.32,16.6,6.97c4.64,4.64,6.97,10.18,6.97,16.6s-2.33,12.3-6.97,16.81c-4.65,4.51-10.18,6.76-16.6,6.76Z"/>
</svg>